# Blender v2.79 (sub 0) OBJ File: ''
# www.blender.org
mtllib cone.mtl
o Cone
v 0.000000 -1.000000 -1.000000
v 0.195090 -1.000000 -0.980785
v 0.382683 -1.000000 -0.923880
v 0.555570 -1.000000 -0.831470
v 0.707107 -1.000000 -0.707107
v 0.831470 -1.000000 -0.555570
v 0.923880 -1.000000 -0.382683
v 0.980785 -1.000000 -0.195090
v 1.000000 -1.000000 -0.000000
v 0.980785 -1.000000 0.195090
v 0.923880 -1.000000 0.382683
v 0.831470 -1.000000 0.555570
v 0.707107 -1.000000 0.707107
v 0.555570 -1.000000 0.831470
v 0.382683 -1.000000 0.923880
v 0.195090 -1.000000 0.980785
v -0.000000 -1.000000 1.000000
v -0.195091 -1.000000 0.980785
v -0.382684 -1.000000 0.923879
v -0.555571 -1.000000 0.831469
v -0.707107 -1.000000 0.707106
v -0.831470 -1.000000 0.555570
v -0.923880 -1.000000 0.382683
v 0.000000 1.000000 0.000000
v -0.980785 -1.000000 0.195089
v -1.000000 -1.000000 -0.000001
v -0.980785 -1.000000 -0.195091
v -0.923879 -1.000000 -0.382684
v -0.831469 -1.000000 -0.555571
v -0.707106 -1.000000 -0.707108
v -0.555569 -1.000000 -0.831470
v -0.382682 -1.000000 -0.923880
v -0.195089 -1.000000 -0.980786
vt 0.007041 0.674310
vt 0.455913 1.000000
vt 0.000000 0.701578
vt 0.002386 0.726029
vt 0.014108 0.746721
vt 0.034714 0.762859
vt 0.547870 0.238156
vt 1.000000 0.000000
vt 0.535288 0.258437
vt 0.531876 0.282789
vt 0.537767 0.310276
vt 0.552734 0.339843
vt 0.576201 0.370352
vt 0.607267 0.400632
vt 0.644738 0.429518
vt 0.687174 0.455901
vt 0.732944 0.478767
vt 0.780289 0.497237
vt 0.827391 0.510601
vt 0.872438 0.518345
vt 0.913699 0.520173
vt 0.949590 0.516014
vt 0.978730 0.506027
vt 1.000000 0.490597
vt 0.455913 0.493613
vt 0.427213 0.482648
vt 0.391522 0.477277
vt 0.350213 0.477708
vt 0.304873 0.483924
vt 0.257244 0.495686
vt 0.209156 0.512541
vt 0.162458 0.533842
vt 0.118944 0.558771
vt 0.080287 0.586370
vt 0.047971 0.615577
vt 0.023239 0.645271
vt 0.000000 0.262143
vt 0.000000 0.215135
vt 0.010220 0.169030
vt 0.030267 0.125601
vt 0.059370 0.086515
vt 0.096412 0.053276
vt 0.139969 0.027160
vt 0.188367 0.009171
vt 0.239745 0.000000
vt 0.292131 0.000000
vt 0.343509 0.009171
vt 0.391907 0.027160
vt 0.435464 0.053276
vt 0.472506 0.086515
vt 0.501610 0.125601
vt 0.521657 0.169030
vt 0.531876 0.215135
vt 0.531876 0.262143
vt 0.521657 0.308247
vt 0.501610 0.351677
vt 0.472506 0.390762
vt 0.435464 0.424002
vt 0.391907 0.450118
vt 0.343509 0.468107
vt 0.292131 0.477277
vt 0.239745 0.477277
vt 0.188367 0.468107
vt 0.139969 0.450118
vt 0.096412 0.424001
vt 0.059370 0.390762
vt 0.030267 0.351676
vt 0.010220 0.308247
vn 0.0878 0.4455 -0.8910
vn 0.2599 0.4455 -0.8567
vn 0.4220 0.4455 -0.7896
vn 0.5680 0.4455 -0.6921
vn 0.6921 0.4455 -0.5680
vn 0.7896 0.4455 -0.4220
vn 0.8567 0.4455 -0.2599
vn 0.8910 0.4455 -0.0878
vn 0.8910 0.4455 0.0878
vn 0.8567 0.4455 0.2599
vn 0.7896 0.4455 0.4220
vn 0.6921 0.4455 0.5680
vn 0.5680 0.4455 0.6921
vn 0.4220 0.4455 0.7896
vn 0.2599 0.4455 0.8567
vn 0.0878 0.4455 0.8910
vn -0.0878 0.4455 0.8910
vn -0.2599 0.4455 0.8567
vn -0.4220 0.4455 0.7896
vn -0.5680 0.4455 0.6921
vn -0.6921 0.4455 0.5680
vn -0.7896 0.4455 0.4220
vn -0.8567 0.4455 0.2599
vn -0.8910 0.4455 0.0878
vn -0.8910 0.4455 -0.0878
vn -0.8567 0.4455 -0.2599
vn -0.7896 0.4455 -0.4220
vn -0.6921 0.4455 -0.5680
vn -0.5680 0.4455 -0.6921
vn -0.4220 0.4455 -0.7896
vn -0.2599 0.4455 -0.8567
vn -0.0878 0.4455 -0.8910
vn 0.0000 -1.0000 -0.0000
usemtl None
s off
f 1/1/1 24/2/1 2/3/1
f 2/3/2 24/2/2 3/4/2
f 3/4/3 24/2/3 4/5/3
f 4/5/4 24/2/4 5/6/4
f 5/7/5 24/8/5 6/9/5
f 6/9/6 24/8/6 7/10/6
f 7/10/7 24/8/7 8/11/7
f 8/11/8 24/8/8 9/12/8
f 9/12/9 24/8/9 10/13/9
f 10/13/10 24/8/10 11/14/10
f 11/14/11 24/8/11 12/15/11
f 12/15/12 24/8/12 13/16/12
f 13/16/13 24/8/13 14/17/13
f 14/17/14 24/8/14 15/18/14
f 15/18/15 24/8/15 16/19/15
f 16/19/16 24/8/16 17/20/16
f 17/20/17 24/8/17 18/21/17
f 18/21/18 24/8/18 19/22/18
f 19/22/19 24/8/19 20/23/19
f 20/23/20 24/8/20 21/24/20
f 21/25/21 24/2/21 22/26/21
f 22/26/22 24/2/22 23/27/22
f 23/27/23 24/2/23 25/28/23
f 25/28/24 24/2/24 26/29/24
f 26/29/25 24/2/25 27/30/25
f 27/30/26 24/2/26 28/31/26
f 28/31/27 24/2/27 29/32/27
f 29/32/28 24/2/28 30/33/28
f 30/33/29 24/2/29 31/34/29
f 31/34/30 24/2/30 32/35/30
f 32/35/31 24/2/31 33/36/31
f 33/36/32 24/2/32 1/1/32
f 1/37/33 2/38/33 3/39/33 4/40/33 5/41/33 6/42/33 7/43/33 8/44/33 9/45/33 10/46/33 11/47/33 12/48/33 13/49/33 14/50/33 15/51/33 16/52/33 17/53/33 18/54/33 19/55/33 20/56/33 21/57/33 22/58/33 23/59/33 25/60/33 26/61/33 27/62/33 28/63/33 29/64/33 30/65/33 31/66/33 32/67/33 33/68/33
