# Blender v2.79 (sub 0) OBJ File: ''
# www.blender.org
mtllib meteor.mtl
o Meteor
v 0.182636 -0.203804 -0.400906
v 0.006456 -0.083792 -0.483881
v 0.295420 0.006126 -0.441857
v -0.225076 0.006859 0.136383
v -0.041913 0.147224 -0.006223
v -0.227373 0.134276 0.016059
v -0.705899 -0.140747 -0.316016
v -0.785124 -0.012135 -0.131494
v -0.717815 -0.000043 -0.447278
v -0.785219 0.180213 -0.180433
v -0.780327 0.114413 -0.393936
v -0.168230 0.035772 -0.477440
v -0.057415 0.315429 -0.681487
v 0.056387 0.084997 -0.627697
v -0.727937 -0.313694 -0.094076
v -0.609134 -0.250665 -0.013371
v -0.697842 -0.008562 0.073572
v -0.275253 0.355197 -0.694435
v -0.447506 0.240810 -0.724095
v -0.346964 0.525018 -0.570360
v -0.479041 -0.155992 -0.663457
v -0.605493 -0.328571 -0.639137
v -0.639134 -0.177581 -0.529002
v -0.549556 0.449802 -0.349888
v -0.567789 0.357765 -0.511557
v -0.387547 -0.040803 -0.655142
v -0.189207 -0.257077 -0.533106
v -0.371433 -0.220706 -0.619015
v -0.756836 -0.236684 -0.223870
v 0.093574 -0.131821 -0.107975
v -0.054086 -0.238355 0.116831
v 0.162215 -0.375351 -0.039022
v -0.685886 0.095200 -0.040327
v -0.730450 0.327792 -0.197281
v -0.526689 0.228201 -0.042283
v -0.491594 0.358607 -0.047690
v -0.694636 0.249329 -0.530660
v -0.515915 0.161477 -0.688375
v -0.570738 0.019536 -0.542793
v 0.271711 -0.260297 -0.325812
v 0.159973 -0.034377 -0.282185
v -0.716687 -0.346995 -0.385376
v -0.580833 -0.474615 -0.417618
v -0.499217 -0.022733 -0.624803
v -0.519516 0.489937 -0.115883
v -0.618726 0.419422 -0.172376
v 0.113031 0.229044 -0.286587
v 0.228260 0.174588 -0.366219
v 0.071306 0.463511 -0.276098
v 0.016700 0.596458 -0.543581
v -0.120961 0.645167 -0.422985
v -0.380033 -0.170081 0.062852
v -0.373349 -0.089798 0.219861
v -0.561363 -0.015749 0.235947
v -0.235851 0.487940 -0.273652
v -0.296461 0.082457 -0.596542
v -0.663440 0.170050 -0.495918
v -0.050052 0.530535 -0.245025
v -0.373756 -0.553718 -0.220216
v -0.447805 0.198800 0.067132
v -0.713956 0.404137 -0.386640
v -0.129113 -0.438910 -0.192621
v 0.147881 0.379857 -0.567534
v 0.336941 0.248582 -0.541448
v -0.317439 0.409014 0.022064
v -0.213990 -0.241847 -0.037446
v -0.015432 -0.591883 -0.387537
v -0.320252 -0.502686 -0.367456
v 0.134213 -0.503501 -0.202743
v -0.061166 -0.019961 -0.041617
v -0.491853 -0.335922 -0.542535
v -0.136314 0.535603 -0.675427
v -0.027620 0.077660 -0.150298
v -0.048543 0.428973 -0.024104
v -0.181735 -0.200136 0.290525
v -0.407275 0.534760 -0.014049
v -0.025160 -0.433624 -0.511652
vt 0.350100 0.162800
vt 0.399500 0.105000
vt 0.419400 0.210000
vt 0.168900 0.500500
vt 0.221700 0.576800
vt 0.162800 0.558000
vt 0.780200 0.645600
vt 0.815300 0.719600
vt 0.719900 0.666400
vt 0.767600 0.770900
vt 0.719300 0.713000
vt 0.442400 0.046300
vt 0.552100 0.085800
vt 0.473200 0.121900
vt 0.879800 0.635700
vt 0.921000 0.671300
vt 0.881100 0.753500
vt 0.505800 0.682200
vt 0.570900 0.670200
vt 0.506500 0.762000
vt 0.708200 0.435700
vt 0.737800 0.502300
vt 0.673700 0.497800
vt 0.598900 0.817200
vt 0.603500 0.753200
vt 0.602500 0.577800
vt 0.582300 0.472800
vt 0.630900 0.522500
vt 0.827400 0.637100
vt 0.304600 0.294400
vt 0.216900 0.345500
vt 0.239300 0.249400
vt 0.834100 0.775700
vt 0.727400 0.810400
vt 0.798200 0.867700
vt 0.763400 0.898500
vt 0.651300 0.725400
vt 0.601700 0.660000
vt 0.668400 0.639700
vt 0.325200 0.193800
vt 0.369400 0.264200
vt 0.748500 0.415100
vt 0.799500 0.575000
vt 0.824400 0.518300
vt 0.651400 0.563600
vt 0.644600 0.610000
vt 0.604600 0.898800
vt 0.637600 0.871200
vt 0.437300 0.321300
vt 0.448200 0.271200
vt 0.498800 0.375600
vt 0.601000 0.367900
vt 0.585500 0.431700
vt 0.103600 0.385900
vt 0.123000 0.448900
vt 0.057600 0.473600
vt 0.429700 0.825500
vt 0.500100 0.869000
vt 0.508400 0.541100
vt 0.545600 0.590300
vt 0.439900 0.643100
vt 0.667400 0.700000
vt 0.522700 0.492000
vt 0.511100 0.424800
vt 0.918100 0.488000
vt 0.832500 0.898300
vt 0.824900 0.803000
vt 0.657100 0.795900
vt 0.136200 0.235700
vt 0.561000 0.290300
vt 0.509700 0.228600
vt 0.087700 0.559600
vt 0.110500 0.640200
vt 0.016500 0.373100
vt 0.140600 0.325800
vt 0.721300 0.594100
vt 0.151900 0.150500
vt 0.058600 0.180300
vt 0.221900 0.184600
vt 0.310900 0.358900
vt 0.777300 0.469500
vt 0.875900 0.446200
vt 0.443100 0.718800
vt 0.350800 0.400900
vt 0.359700 0.349200
vt 0.377900 0.737800
vt 0.044200 0.232400
vt 0.433700 0.439500
vt 0.407900 0.801300
vt 0.196700 0.418700
vt 0.777600 0.962900
vt 0.575800 0.943400
vt 0.410900 0.523500
vt 0.282000 0.073200
vt 0.530200 0.971700
vt 0.138200 0.091800
vt 0.351500 0.028400
vt 0.876000 0.862500
vt 0.798900 0.366200
vt 0.566800 0.168700
vt 0.943700 0.787200
vt 0.720100 0.564500
vt 0.712200 0.902500
vt 0.713200 0.857200
vt 0.933100 0.635400
vt 0.647700 0.138500
vt 0.725200 0.953900
vt 0.058200 0.068900
vn 0.4451 -0.2144 -0.8695
vn 0.1369 -0.2475 -0.9592
vn 0.9446 -0.2862 -0.1610
vn 0.0497 0.6482 0.7599
vn 0.7239 0.0733 0.6860
vn 0.1560 0.3766 0.9132
vn -0.9486 -0.0554 -0.3117
vn -0.9831 -0.0090 0.1828
vn -0.8112 -0.1631 -0.5616
vn -0.8982 0.2778 0.3405
vn -0.9300 -0.0172 -0.3671
vn 0.2114 -0.2724 -0.9387
vn 0.2254 -0.0809 -0.9709
vn 0.0644 -0.3972 -0.9155
vn -0.6938 -0.5498 0.4652
vn -0.1976 -0.5895 0.7832
vn -0.7894 0.1540 0.5943
vn -0.0667 0.1063 -0.9921
vn -0.2084 0.1321 -0.9691
vn -0.4468 0.8055 -0.3892
vn -0.1725 -0.0528 -0.9836
vn -0.3876 -0.4099 -0.8257
vn -0.8198 0.1150 -0.5610
vn -0.2980 0.9436 -0.1444
vn -0.4775 0.6490 -0.5922
vn 0.3582 -0.0792 -0.9303
vn 0.1830 -0.2172 -0.9588
vn 0.3080 -0.4068 -0.8600
vn -0.9849 -0.1128 -0.1311
vn 0.7156 0.4176 0.5600
vn 0.4428 -0.4906 0.7505
vn 0.6105 -0.3774 0.6963
vn -0.6425 0.5164 0.5661
vn -0.8032 0.4404 0.4012
vn -0.6030 0.3990 0.6908
vn -0.5644 0.2565 0.7847
vn -0.7479 0.1668 -0.6426
vn -0.5515 -0.0514 -0.8326
vn -0.6939 -0.0732 -0.7164
vn 0.9747 -0.1680 -0.1477
vn 0.7279 0.2414 0.6418
vn -0.9054 -0.3647 -0.2174
vn -0.3555 -0.8803 -0.3143
vn -0.8864 -0.0568 -0.4594
vn -0.5442 0.7850 0.2959
vn -0.5913 0.6949 0.4093
vn 0.7162 0.0538 0.6958
vn 0.7348 0.1240 0.6668
vn 0.7513 0.5491 0.3660
vn 0.5425 0.7689 -0.3383
vn -0.0614 0.9850 0.1612
vn -0.1421 -0.8445 0.5163
vn -0.2004 -0.1672 0.9654
vn -0.3389 0.0327 0.9403
vn -0.1833 0.9445 0.2727
vn 0.4939 -0.2324 -0.8379
vn -0.6980 -0.3698 -0.6131
vn 0.1808 0.8807 0.4378
vn 0.0233 -0.9522 0.3046
vn -0.1917 0.4953 0.8473
vn -0.7271 0.6393 -0.2502
vn -0.0664 -0.8008 0.5952
vn 0.6047 0.4986 -0.6211
vn 0.9072 0.2206 -0.3583
vn 0.0872 0.4512 0.8881
vn -0.1955 -0.7687 0.6090
vn 0.2258 -0.9412 -0.2515
vn 0.0287 -0.8891 -0.4569
vn 0.4833 -0.8493 0.2123
vn 0.9363 0.1893 0.2957
vn 0.2878 -0.7196 -0.6320
vn 0.0609 0.5651 -0.8228
vn 0.8581 -0.0049 0.5135
vn 0.4345 0.5461 0.7162
vn 0.1348 -0.4094 0.9023
vn -0.0920 0.7950 0.5997
vn 0.2402 -0.3918 -0.8881
usemtl default
s 1
f 1/1/1 2/2/2 3/3/3
f 4/4/4 5/5/5 6/6/6
f 7/7/7 8/8/8 9/9/9
f 10/10/10 11/11/11 8/8/8
f 12/12/12 13/13/13 14/14/14
f 15/15/15 16/16/16 17/17/17
f 18/18/18 19/19/19 20/20/20
f 21/21/21 22/22/22 23/23/23
f 24/24/24 20/20/20 25/25/25
f 26/26/26 27/27/27 28/28/28
f 29/29/29 8/8/8 7/7/7
f 30/30/30 31/31/31 32/32/32
f 8/8/8 17/17/17 33/33/33
f 34/34/34 35/35/35 36/36/36
f 37/37/37 38/38/38 39/39/39
f 40/40/40 3/3/3 41/41/41
f 25/25/25 20/20/20 19/19/19
f 38/38/38 37/37/37 25/25/25
f 28/42/28 22/22/22 21/21/21
f 42/43/42 22/22/22 43/44/43
f 38/38/38 21/45/21 44/46/44
f 45/47/45 24/24/24 46/48/46
f 47/49/47 41/41/41 48/50/48
f 34/34/34 10/10/10 35/35/35
f 49/51/49 50/52/50 51/53/51
f 3/3/3 40/40/40 1/1/1
f 52/54/52 53/55/53 54/56/54
f 51/57/51 20/20/20 55/58/55
f 12/59/12 56/60/56 13/61/13
f 11/11/11 37/37/37 57/62/57
f 56/60/56 18/18/18 13/61/13
f 55/63/55 58/64/58 51/53/51
f 43/44/43 59/65/59 15/15/15
f 60/66/60 35/35/35 33/67/33
f 34/34/34 61/68/61 37/37/37
f 32/32/32 31/31/31 62/69/62
f 63/70/63 49/51/49 64/71/64
f 53/55/53 60/72/60 54/56/54
f 65/73/65 60/72/60 6/6/6
f 25/25/25 19/19/19 38/38/38
f 16/74/16 66/75/66 52/54/52
f 23/76/23 9/9/9 39/39/39
f 31/31/31 66/75/66 62/69/62
f 67/77/67 62/69/62 68/78/68
f 32/32/32 69/79/69 40/40/40
f 21/45/21 38/38/38 26/26/26
f 30/30/30 70/80/70 31/31/31
f 36/36/36 35/35/35 60/66/60
f 71/81/71 68/82/68 43/44/43
f 13/61/13 18/18/18 72/83/72
f 47/49/47 5/84/5 73/85/73
f 64/71/64 48/50/48 3/3/3
f 13/61/13 72/83/72 50/86/50
f 59/87/59 62/69/62 66/75/66
f 40/40/40 41/41/41 30/30/30
f 58/64/58 74/88/74 49/51/49
f 64/71/64 3/3/3 14/14/14
f 50/86/50 72/83/72 51/89/51
f 52/54/52 31/31/31 75/90/75
f 33/67/33 35/35/35 10/10/10
f 7/7/7 23/76/23 42/43/42
f 43/44/43 68/82/68 59/65/59
f 63/70/63 50/52/50 49/51/49
f 17/17/17 8/8/8 15/15/15
f 11/11/11 34/34/34 37/37/37
f 3/3/3 48/50/48 41/41/41
f 61/68/61 24/24/24 25/25/25
f 74/88/74 58/64/58 55/63/55
f 60/66/60 65/91/65 36/36/36
f 41/41/41 73/85/73 30/30/30
f 29/29/29 7/7/7 42/43/42
f 23/76/23 7/7/7 9/9/9
f 76/92/76 55/58/55 45/47/45
f 65/93/65 74/88/74 55/63/55
f 29/29/29 15/15/15 8/8/8
f 1/1/1 40/40/40 77/94/77
f 70/80/70 73/85/73 5/84/5
f 26/26/26 56/60/56 27/27/27
f 76/92/76 65/95/65 55/58/55
f 4/4/4 53/55/53 75/90/75
f 77/96/77 67/77/67 68/78/68
f 27/97/27 12/12/12 2/2/2
f 47/49/47 73/85/73 41/41/41
f 33/33/33 17/17/17 60/98/60
f 49/51/49 48/50/48 64/71/64
f 5/84/5 75/90/75 31/31/31
f 71/81/71 27/99/27 68/82/68
f 63/100/63 64/71/64 14/14/14
f 12/12/12 14/14/14 2/2/2
f 8/8/8 11/11/11 9/9/9
f 44/46/44 23/76/23 39/39/39
f 53/55/53 6/6/6 60/72/60
f 47/49/47 74/88/74 5/84/5
f 17/17/17 54/101/54 60/98/60
f 22/22/22 42/43/42 23/102/23
f 57/62/57 9/9/9 11/11/11
f 16/74/16 52/54/52 54/56/54
f 5/84/5 31/31/31 70/80/70
f 31/31/31 52/54/52 66/75/66
f 62/69/62 67/77/67 69/79/69
f 32/32/32 62/69/62 69/79/69
f 53/55/53 52/54/52 75/90/75
f 12/59/12 27/27/27 56/60/56
f 67/77/67 77/96/77 69/79/69
f 30/30/30 32/32/32 40/40/40
f 72/83/72 18/18/18 20/20/20
f 77/94/77 27/97/27 2/2/2
f 45/103/45 46/104/46 36/36/36
f 19/19/19 18/18/18 56/60/56
f 58/64/58 49/51/49 51/53/51
f 24/24/24 45/47/45 55/58/55
f 55/58/55 20/20/20 24/24/24
f 59/87/59 66/75/66 16/74/16
f 65/93/65 5/84/5 74/88/74
f 73/85/73 70/80/70 30/30/30
f 5/5/5 65/73/65 6/6/6
f 34/34/34 36/36/36 46/104/46
f 16/16/16 54/101/54 17/17/17
f 16/105/16 15/15/15 59/65/59
f 3/3/3 2/2/2 14/14/14
f 26/26/26 19/19/19 56/60/56
f 23/76/23 44/46/44 21/45/21
f 19/19/19 26/26/26 38/38/38
f 43/44/43 15/15/15 42/43/42
f 37/37/37 61/68/61 25/25/25
f 13/13/13 50/106/50 63/100/63
f 77/94/77 2/2/2 1/1/1
f 61/68/61 46/48/46 24/24/24
f 46/104/46 61/68/61 34/34/34
f 57/62/57 39/39/39 9/9/9
f 47/49/47 49/51/49 74/88/74
f 71/81/71 22/22/22 28/42/28
f 20/20/20 51/89/51 72/83/72
f 36/36/36 76/107/76 45/103/45
f 59/87/59 68/78/68 62/69/62
f 75/90/75 5/5/5 4/4/4
f 14/14/14 13/13/13 63/100/63
f 42/43/42 15/15/15 29/29/29
f 27/99/27 71/81/71 28/42/28
f 36/36/36 65/91/65 76/107/76
f 26/26/26 28/28/28 21/45/21
f 47/49/47 48/50/48 49/51/49
f 57/62/57 37/37/37 39/39/39
f 77/96/77 68/78/68 27/108/27
f 40/40/40 69/79/69 77/94/77
f 10/10/10 34/34/34 11/11/11
f 4/4/4 6/6/6 53/55/53
f 39/39/39 38/38/38 44/46/44
f 33/33/33 10/10/10 8/8/8
f 43/44/43 22/22/22 71/81/71
